<svg width="221" height="221" viewBox="0 0 221 221" fill="none" xmlns="http://www.w3.org/2000/svg">
<g clip-path="url(#clip0)">
<path d="M221 110.5C221.02 125.458 217.992 140.264 212.101 154.013L211.735 154.857C201.771 177.525 184.493 196.198 162.664 207.888C140.835 219.579 115.717 223.612 91.326 219.342C90.6623 219.225 89.9998 219.103 89.3383 218.976C82.5034 217.651 75.8104 215.678 69.3502 213.082C68.3008 212.66 67.259 212.223 66.2248 211.771C65.5187 211.464 64.8125 211.146 64.1129 210.82C44.9746 201.95 28.7709 187.793 17.4117 170.019C6.05249 152.245 0.0112352 131.594 0 110.5C0 49.4733 49.4733 0 110.5 0C171.527 0 221 49.4733 221 110.5Z" fill="#FCDD32"/>
<path opacity="0.2" d="M91.3262 219.342C90.6625 219.225 90 219.103 89.3385 218.976C88.9069 206.452 87.426 180.746 82.375 153.824C79.6125 139.089 75.7777 123.986 70.4587 110.484C68.6364 105.812 66.555 101.245 64.2242 96.8051C58.8496 86.6542 52.3308 78.1084 44.4258 72.3186L45.5896 70.7297C52.1641 75.5486 58.0726 82.3137 63.3154 91.0251C64.8879 93.634 66.3983 96.4172 67.8466 99.3747C69.3995 102.539 70.8804 105.899 72.2895 109.454C73.1885 111.716 74.057 114.057 74.895 116.476C78.5435 126.98 81.6449 138.965 84.1993 152.431C84.7649 155.406 85.3032 158.454 85.8143 161.575C89.7733 185.758 90.9665 208.116 91.3262 219.342Z" fill="black"/>
<path opacity="0.2" d="M66.2254 211.771C65.5192 211.464 64.8131 211.147 64.1135 210.82C63.4302 203.398 62.1748 194.192 59.8798 185.454C58.8747 181.529 57.5842 177.683 56.0189 173.946C53.4002 167.816 50.01 162.605 45.626 159.391L46.7898 157.806C51.3798 161.167 54.9204 166.479 57.6567 172.694C60.7396 179.697 62.796 187.847 64.1658 195.634C65.1825 201.417 65.8233 207.004 66.2254 211.771Z" fill="black"/>
<path opacity="0.2" d="M33.4314 72.273C38.864 72.273 43.268 67.869 43.268 62.4364C43.268 57.0038 38.864 52.5997 33.4314 52.5997C27.9987 52.5997 23.5947 57.0038 23.5947 62.4364C23.5947 67.869 27.9987 72.273 33.4314 72.273Z" fill="black"/>
<path opacity="0.2" d="M36.5993 156.949C42.032 156.949 46.436 152.545 46.436 147.112C46.436 141.68 42.032 137.276 36.5993 137.276C31.1667 137.276 26.7627 141.68 26.7627 147.112C26.7627 152.545 31.1667 156.949 36.5993 156.949Z" fill="black"/>
<path opacity="0.2" d="M72.4836 78.9589C70.3977 90.7273 75.0024 101.383 75.0024 101.383C75.0024 101.383 82.9891 92.9591 85.075 81.1907C87.1609 69.4223 82.5562 58.7663 82.5562 58.7663C82.5562 58.7663 74.5696 67.1905 72.4836 78.9589Z" fill="black"/>
<path opacity="0.2" d="M39.792 106.894C51.0169 110.999 62.2964 108.365 62.2964 108.365C62.2964 108.365 55.3767 99.0762 44.1518 94.9717C32.9269 90.8671 21.6475 93.5012 21.6475 93.5012C21.6475 93.5012 28.5671 102.79 39.792 106.894Z" fill="black"/>
<path opacity="0.2" d="M37.8893 181.878C45.7571 184.755 53.6742 182.878 53.6742 182.878C53.6742 182.878 48.8352 176.337 40.9675 173.46C33.0998 170.583 25.1826 172.46 25.1826 172.46C25.1826 172.46 30.0216 179.001 37.8893 181.878Z" fill="black"/>
<path d="M110.273 134.97C134.065 134.97 153.352 115.683 153.352 91.8911C153.352 68.0994 134.065 48.8124 110.273 48.8124C86.4813 48.8124 67.1943 68.0994 67.1943 91.8911C67.1943 115.683 86.4813 134.97 110.273 134.97Z" fill="#D0CDE1"/>
<path d="M93.4453 124.873C93.4453 124.873 98.8301 150.451 98.8301 153.144C98.8301 155.836 124.408 167.952 124.408 167.952L147.294 163.913L155.371 139.682C155.371 139.682 141.909 119.488 141.909 111.411L93.4453 124.873Z" fill="#D0CDE1"/>
<path d="M212.101 154.013L211.735 154.857C201.77 177.525 184.492 196.198 162.663 207.888C140.835 219.579 115.717 223.612 91.3255 219.342C90.6618 219.225 89.9993 219.103 89.3378 218.976C82.5029 217.651 75.8099 215.678 69.3497 213.082C68.3003 212.66 67.2585 212.223 66.2243 211.771C65.5182 211.464 64.812 211.146 64.1124 210.819C57.771 207.882 51.723 204.348 46.0499 200.266L40.9434 185.454L43.8137 183.263L49.718 178.755L56.0178 173.946L57.6557 172.694L82.3743 153.824L84.1986 152.431L97.0466 142.623L97.0499 142.62C97.0499 142.62 110.944 165.26 131.138 158.528C151.332 151.797 150.891 132.495 150.891 132.495L212.101 154.013Z" fill="#2F2E41"/>
<path d="M72.9156 57.1841C72.9156 57.1841 86.593 27.5499 112.808 34.3885C139.023 41.2272 153.84 51.4852 154.98 61.7432C156.119 72.0012 154.41 87.3882 154.41 87.3882C154.41 87.3882 151.56 66.3023 133.324 70.8614C115.087 75.4205 86.593 72.0012 86.593 72.0012L82.0339 113.033C82.0339 113.033 76.9049 105.625 71.206 110.184C65.5071 114.743 54.6792 66.3023 72.9156 57.1841Z" fill="#2F2E41"/>
<path d="M69.35 213.082C68.3006 212.66 67.2588 212.223 66.2247 211.771C65.5185 211.464 64.8123 211.147 64.1127 210.82C53.6248 205.956 43.9627 199.481 35.4775 191.629C38.482 187.536 40.9437 185.454 40.9437 185.454H61.1377L64.165 195.634L69.35 213.082Z" fill="#2F2E41"/>
<path d="M194.411 151.797L211.735 154.857C207.099 165.418 200.838 175.188 193.179 183.812L194.411 151.797Z" fill="#2F2E41"/>
</g>
<defs>
<clipPath id="clip0">
<rect width="221" height="221" fill="white"/>
</clipPath>
</defs>
</svg>
