<svg width="24" height="19" viewBox="0 0 24 19" fill="none" xmlns="http://www.w3.org/2000/svg">
<path d="M23.2969 9.79787L15.4219 17.6729C14.7188 18.376 13.5 17.8838 13.5 16.876V12.376H7.125C6.50156 12.376 6 11.8744 6 11.251V6.751C6 6.12756 6.50156 5.626 7.125 5.626H13.5V1.126C13.5 0.122872 14.7141 -0.374003 15.4219 0.329122L23.2969 8.20412C23.7328 8.64475 23.7328 9.35725 23.2969 9.79787ZM9 17.4385V15.5635C9 15.2541 8.74687 15.001 8.4375 15.001H4.5C3.67031 15.001 3 14.3307 3 13.501V4.501C3 3.67131 3.67031 3.001 4.5 3.001H8.4375C8.74687 3.001 9 2.74787 9 2.4385V0.563497C9 0.254122 8.74687 0.000996964 8.4375 0.000996964H4.5C2.01562 0.000996964 0 2.01662 0 4.501V13.501C0 15.9854 2.01562 18.001 4.5 18.001H8.4375C8.74687 18.001 9 17.7479 9 17.4385Z" fill="white"/>
</svg>
