<svg width="830" height="706" viewBox="0 0 830 706" fill="none" xmlns="http://www.w3.org/2000/svg">
<g clip-path="url(#clip0)">
<path d="M213.241 293.065C254.813 293.065 288.514 257.625 288.514 213.907C288.514 170.189 254.813 134.749 213.241 134.749C171.669 134.749 137.968 170.189 137.968 213.907C137.968 257.625 171.669 293.065 213.241 293.065Z" fill="#419CA1"/>
<path d="M830 189.423V397.622C830.001 437.976 822.444 477.934 807.759 515.216C793.075 552.498 771.552 586.373 744.418 614.908C717.284 643.442 685.072 666.076 649.619 681.518C614.167 696.96 576.17 704.908 537.797 704.907H0V496.707C0 385.453 56.2267 287.999 140.437 234.073C154.948 224.772 170.208 216.83 186.042 210.339C195.36 206.511 204.862 203.198 214.509 200.414C214.698 200.348 214.895 200.291 215.083 200.244C217.933 199.424 220.802 198.651 223.688 197.925C223.849 197.878 224.001 197.84 224.163 197.803C241.951 193.346 260.097 190.654 278.364 189.762C280.524 189.659 282.684 189.574 284.862 189.527C285.642 189.498 286.431 189.479 287.228 189.479C288.878 189.442 290.536 189.423 292.203 189.423H830Z" fill="#202F36"/>
<path d="M387.214 570.738C173.811 570.738 0.734349 631.254 0.00878906 706H774.42C773.694 631.254 600.618 570.738 387.214 570.738Z" fill="#F2F2F2"/>
<g opacity="0.1">
<path opacity="0.1" d="M315.508 673.219C355.11 673.219 387.214 663.841 387.214 652.272C387.214 640.704 355.11 631.326 315.508 631.326C275.906 631.326 243.802 640.704 243.802 652.272C243.802 663.841 275.906 673.219 315.508 673.219Z" fill="black"/>
</g>
<g opacity="0.1">
<path opacity="0.1" d="M470.572 635.515C510.175 635.515 542.279 626.137 542.279 614.569C542.279 603 510.175 593.622 470.572 593.622C430.97 593.622 398.866 603 398.866 614.569C398.866 626.137 430.97 635.515 470.572 635.515Z" fill="black"/>
</g>
<g opacity="0.1">
<path opacity="0.1" d="M315.507 671.124C351.149 671.124 380.043 662.684 380.043 652.272C380.043 641.861 351.149 633.421 315.507 633.421C279.865 633.421 250.972 641.861 250.972 652.272C250.972 662.684 279.865 671.124 315.507 671.124Z" fill="black"/>
</g>
<g opacity="0.1">
<path opacity="0.1" d="M470.573 633.421C506.215 633.421 535.108 624.98 535.108 614.569C535.108 604.157 506.215 595.717 470.573 595.717C434.931 595.717 406.037 604.157 406.037 614.569C406.037 624.98 434.931 633.421 470.573 633.421Z" fill="black"/>
</g>
<path d="M123.693 279.949C127.158 279.949 129.968 276.995 129.968 273.351C129.968 269.707 127.158 266.753 123.693 266.753C120.228 266.753 117.419 269.707 117.419 273.351C117.419 276.995 120.228 279.949 123.693 279.949Z" fill="#F2F2F2"/>
<path d="M663.283 538.219C666.748 538.219 669.557 535.265 669.557 531.621C669.557 527.977 666.748 525.023 663.283 525.023C659.818 525.023 657.009 527.977 657.009 531.621C657.009 535.265 659.818 538.219 663.283 538.219Z" fill="#F2F2F2"/>
<path d="M367.495 326.136C370.96 326.136 373.769 323.182 373.769 319.538C373.769 315.894 370.96 312.94 367.495 312.94C364.03 312.94 361.221 315.894 361.221 319.538C361.221 323.182 364.03 326.136 367.495 326.136Z" fill="#F2F2F2"/>
<path d="M678.52 283.72C680.5 283.72 682.106 282.032 682.106 279.949C682.106 277.867 680.5 276.179 678.52 276.179C676.54 276.179 674.935 277.867 674.935 279.949C674.935 282.032 676.54 283.72 678.52 283.72Z" fill="#FF6584"/>
<path d="M138.035 472.238C140.015 472.238 141.62 470.55 141.62 468.467C141.62 466.385 140.015 464.697 138.035 464.697C136.054 464.697 134.449 466.385 134.449 468.467C134.449 470.55 136.054 472.238 138.035 472.238Z" fill="#FF6584"/>
<path d="M84.2552 547.948H82.6221V546.231H82.303V547.948H80.6699V548.284H82.303V550.001H82.6221V548.284H84.2552V547.948Z" fill="#F2F2F2"/>
<path d="M608.607 408.445H606.974V406.728H606.655V408.445H605.021V408.781H606.655V410.498H606.974V408.781H608.607V408.445Z" fill="#F2F2F2"/>
<path d="M743.952 380.167H742.319V378.45H742V380.167H740.367V380.503H742V382.22H742.319V380.503H743.952V380.167Z" fill="#F2F2F2"/>
<path d="M452.646 455.575H451.013V453.857H450.694V455.575H449.061V455.91H450.694V457.628H451.013V455.91H452.646V455.575Z" fill="#F2F2F2"/>
<path d="M704.514 465H702.881V463.283H702.562V465H700.929V465.336H702.562V467.053H702.881V465.336H704.514V465Z" fill="#F2F2F2"/>
<path d="M400.659 505.532H399.025V503.814H398.706V505.532H397.073V505.867H398.706V507.585H399.025V505.867H400.659V505.532Z" fill="#F2F2F2"/>
<path d="M515.389 507.417H513.756V505.7H513.437V507.417H511.804V507.753H513.437V509.47H513.756V507.753H515.389V507.417Z" fill="#F2F2F2"/>
<path d="M86.0472 347.177H84.4141V345.459H84.095V347.177H82.4619V347.512H84.095V349.23H84.4141V347.512H86.0472V347.177Z" fill="#F2F2F2"/>
<path d="M609.388 217.445H606.812V272.175H609.388V217.445Z" fill="#E6E6E6"/>
<path d="M548.327 362.941L524.624 420.38L529.261 428.508L527.715 431.217L538.536 437.178V433.927L542.659 432.843L560.178 399.246L548.327 362.941Z" fill="#E6E6E6"/>
<path d="M529.776 430.676C529.776 430.676 512.257 459.395 531.838 463.73C551.418 468.065 535.445 433.385 535.445 433.385L529.776 430.676Z" fill="#E6E6E6"/>
<path d="M555.025 417.67L548.842 438.804L546.266 465.898L541.628 475.652L546.781 519.544L555.025 528.214L558.632 571.565V591.072L568.423 608.955L555.815 627.773C555.221 628.657 554.865 629.694 554.785 630.774C554.706 631.854 554.907 632.936 555.365 633.906C555.824 634.875 556.524 635.696 557.391 636.281C558.258 636.866 559.259 637.193 560.288 637.228C563.072 637.305 566.741 636.478 571.514 633.881C586.458 625.753 585.943 618.166 585.943 618.166C585.943 618.166 595.218 618.166 595.733 610.58C596.248 602.994 590.065 548.806 590.065 548.806L584.397 525.505V462.105H586.458L587.488 516.293L592.126 536.342L592.641 545.013L599.34 631.714C599.34 631.714 629.227 640.384 630.772 633.339C632.318 626.295 619.436 621.96 619.436 621.96L627.165 606.245V575.9L624.589 569.397L619.951 525.505L627.681 516.835L631.803 511.416V468.065L626.65 451.267L625.104 437.178L616.86 415.503C616.86 415.503 579.244 402.498 555.025 417.67Z" fill="white"/>
<path d="M622.012 295.205C622.013 301.723 620.542 308.148 617.72 313.952C614.899 319.755 610.809 324.772 605.785 328.589C600.76 332.406 594.947 334.914 588.821 335.908C582.696 336.902 576.433 336.352 570.549 334.305C564.665 332.257 559.327 328.77 554.973 324.131C550.62 319.491 547.377 313.831 545.509 307.616C543.642 301.401 543.203 294.808 544.231 288.381C545.258 281.953 547.721 275.873 551.418 270.642L551.429 270.631C556.341 263.682 563.21 258.539 571.061 255.931C578.913 253.324 587.345 253.385 595.162 256.106C602.978 258.827 609.779 264.07 614.6 271.089C619.42 278.109 622.014 286.547 622.012 295.205V295.205Z" fill="#FCDD32"/>
<g opacity="0.1">
<path opacity="0.1" d="M616.447 278.131L613.253 297.373C589.245 231.838 551.058 272.094 550.398 272.798C554.345 267.217 559.572 262.777 565.591 259.894C571.61 257.011 578.226 255.778 584.821 256.311C591.416 256.843 597.775 259.123 603.305 262.939C608.836 266.754 613.357 271.981 616.447 278.131V278.131Z" fill="black"/>
</g>
<path d="M617.478 275.963L614.283 295.205C590.276 229.67 552.088 269.926 551.429 270.631C555.376 265.049 560.602 260.61 566.622 257.727C572.641 254.844 579.257 253.611 585.852 254.143C592.446 254.676 598.806 256.956 604.336 260.771C609.866 264.587 614.388 269.813 617.478 275.963V275.963Z" fill="white"/>
<path d="M612.11 267.839L617.478 287.436C617.478 287.436 606.334 322.56 554.658 323.785L552.964 328.802L547.296 330.428L544.72 341.807L551.934 413.877C551.934 413.877 548.842 420.922 553.995 420.38C553.995 420.38 588.004 408.459 617.375 419.296C617.375 419.296 623.558 422.006 622.013 416.045C622.013 416.045 642.624 402.498 641.078 388.409C639.532 374.32 642.624 308.752 642.624 308.752C642.624 308.752 645.716 289.786 636.441 285.451C636.441 285.451 622.818 265.4 612.11 267.839Z" fill="white"/>
<path d="M600.813 404.765C600.813 404.765 568.528 408.174 577.465 427.002C586.402 445.829 602.316 411.119 602.316 411.119L600.813 404.765Z" fill="#E6E6E6"/>
<path d="M617.375 320.674C617.375 320.674 611.707 327.718 613.768 339.098C615.829 350.477 623.558 375.946 623.558 375.946L596.248 402.498L604.493 414.419L641.593 394.37L649.838 388.951C647.788 367.033 642.686 345.551 634.697 325.194L633.349 321.757C633.349 321.757 623.558 317.422 617.375 320.674Z" fill="#E6E6E6"/>
<path d="M614.798 301.437C620.063 301.437 624.331 296.949 624.331 291.412C624.331 285.876 620.063 281.387 614.798 281.387C609.534 281.387 605.266 285.876 605.266 291.412C605.266 296.949 609.534 301.437 614.798 301.437Z" fill="#E6E6E6"/>
<path d="M608.1 224.49C611.942 224.49 615.056 221.215 615.056 217.174C615.056 213.134 611.942 209.859 608.1 209.859C604.258 209.859 601.144 213.134 601.144 217.174C601.144 221.215 604.258 224.49 608.1 224.49Z" fill="#E6E6E6"/>
<path d="M431.134 332.095H429.501V330.378H429.182V332.095H427.549V332.431H429.182V334.148H429.501V332.431H431.134V332.095Z" fill="#F2F2F2"/>
<path d="M578.132 279.31H576.499V277.593H576.18V279.31H574.546V279.646H576.18V281.363H576.499V279.646H578.132V279.31Z" fill="#F2F2F2"/>
<path d="M561.998 295.334H560.365V293.617H560.046V295.334H558.413V295.67H560.046V297.387H560.365V295.67H561.998V295.334Z" fill="#F2F2F2"/>
<path d="M498.359 255.442C500.339 255.442 501.944 253.754 501.944 251.672C501.944 249.589 500.339 247.901 498.359 247.901C496.379 247.901 494.773 249.589 494.773 251.672C494.773 253.754 496.379 255.442 498.359 255.442Z" fill="#F2F2F2"/>
<path d="M321.744 278.247C321.744 541.272 290.294 541.272 251.508 541.272C231.456 541.272 213.367 541.272 200.574 504.939C196.896 494.497 193.647 481.033 190.923 463.701C184.79 424.74 181.272 366.193 181.272 278.247C181.272 244.429 185.079 211.276 190.923 180.311C193.733 165.404 197.014 151.015 200.574 137.291C204.928 120.489 209.699 104.691 214.514 90.2344C217.742 80.5141 221.001 71.3914 224.165 62.9678C238.78 24.0865 251.508 0 251.508 0C251.508 0 321.744 132.984 321.744 278.247Z" fill="#F2F2F2"/>
<g opacity="0.1">
<path opacity="0.1" d="M224.164 62.9678V521.538H214.514V90.2344C217.741 80.5141 221.001 71.3915 224.164 62.9678Z" fill="black"/>
</g>
<path d="M249.364 222.147C270.684 222.147 287.967 203.972 287.967 181.551C287.967 159.131 270.684 140.956 249.364 140.956C228.044 140.956 210.761 159.131 210.761 181.551C210.761 203.972 228.044 222.147 249.364 222.147Z" fill="#3F3D56"/>
<path d="M334.076 516.463C325.492 494.245 314.472 490.412 307.268 490.745V487.144H194.676V490.745C187.472 490.412 176.452 494.245 167.868 516.463C153.928 552.548 176.447 614.569 176.447 614.569C176.447 614.569 164.413 528.07 204.375 527.501C207.836 532.248 212.083 536.3 216.911 539.462V562.726H281.447V541.58C287.756 538.215 293.265 533.404 297.569 527.501C337.531 528.07 325.497 614.569 325.497 614.569C325.497 614.569 348.015 552.548 334.076 516.463Z" fill="#FCDD32"/>
<path d="M249.363 213.126C265.945 213.126 279.388 198.989 279.388 181.551C279.388 164.114 265.945 149.977 249.363 149.977C232.781 149.977 219.339 164.114 219.339 181.551C219.339 198.989 232.781 213.126 249.363 213.126Z" fill="#FCDD32"/>
<path d="M758.303 189.423H756.51C756.639 209.839 764.436 229.374 778.202 243.77C791.967 258.167 810.586 266.259 830 266.282V264.397C811.061 264.375 792.897 256.482 779.468 242.439C766.038 228.395 758.43 209.339 758.303 189.423V189.423Z" fill="#FCDD32"/>
<path d="M725.138 189.423H723.346C723.482 219.086 734.775 247.487 754.759 268.423C774.742 289.358 801.792 301.127 830 301.158V299.272C802.268 299.24 775.675 287.669 756.028 267.088C736.381 246.506 725.276 218.586 725.138 189.423V189.423Z" fill="#FCDD32"/>
<path d="M691.069 189.423H689.276C689.5 270.825 752.539 336.976 830 336.976V335.091C753.525 335.091 691.293 269.788 691.069 189.423Z" fill="#FCDD32"/>
</g>
<defs>
<clipPath id="clip0">
<rect width="830" height="706" fill="white"/>
</clipPath>
</defs>
</svg>
