<svg width="18" height="18" viewBox="0 0 18 18" fill="none" xmlns="http://www.w3.org/2000/svg">
<path d="M12.4703 0.414101H5.52953C2.70883 0.414101 0.414062 2.70887 0.414062 5.52957V12.4703C0.414062 15.2909 2.70883 17.5858 5.52959 17.5858H12.4703C15.2909 17.5858 17.5858 15.291 17.5858 12.4703V5.52957C17.5858 2.70887 15.291 0.414101 12.4703 0.414101ZM15.8583 12.4703C15.8583 14.3415 14.3414 15.8584 12.4703 15.8584H5.52959C3.65846 15.8584 2.14158 14.3415 2.14158 12.4703V5.52963C2.14158 3.65849 3.65846 2.14156 5.52959 2.14156H12.4703C14.3414 2.14156 15.8583 3.65855 15.8583 5.52963V12.4703Z" fill="white"/>
<path d="M8.99988 4.55872C6.55102 4.55872 4.55859 6.55115 4.55859 9.00001C4.55859 11.4487 6.55102 13.4411 8.99988 13.4411C11.4488 13.4411 13.441 11.4489 13.441 9.00001C13.441 6.55115 11.4488 4.55872 8.99988 4.55872ZM8.99988 11.7137C7.50111 11.7137 6.28606 10.4988 6.28606 9.00001C6.28606 7.50118 7.50111 6.28618 8.99988 6.28618C10.4987 6.28618 11.7135 7.50113 11.7135 9.00001C11.7135 10.4988 10.4987 11.7137 8.99988 11.7137Z" fill="white"/>
</svg>
