<svg width="86" height="86" viewBox="0 0 86 86" fill="none" xmlns="http://www.w3.org/2000/svg">
<g opacity="0.8">
<g clip-path="url(#clip0)">
<path d="M75.4386 24.1403H0V76.9473H75.4386V24.1403Z" fill="#ECF0F1"/>
<path d="M75.4386 3.01752H0V24.1403H75.4386V3.01752Z" fill="#546A79"/>
<path d="M10.5615 18.1052C13.0613 18.1052 15.0878 16.0787 15.0878 13.5789C15.0878 11.0791 13.0613 9.05261 10.5615 9.05261C8.06166 9.05261 6.03516 11.0791 6.03516 13.5789C6.03516 16.0787 8.06166 18.1052 10.5615 18.1052Z" fill="#ED7161"/>
<path d="M24.1406 18.1052C26.6404 18.1052 28.6669 16.0787 28.6669 13.5789C28.6669 11.0791 26.6404 9.05261 24.1406 9.05261C21.6408 9.05261 19.6143 11.0791 19.6143 13.5789C19.6143 16.0787 21.6408 18.1052 24.1406 18.1052Z" fill="#EFC41A"/>
<path d="M37.7197 18.1052C40.2195 18.1052 42.246 16.0787 42.246 13.5789C42.246 11.0791 40.2195 9.05261 37.7197 9.05261C35.2199 9.05261 33.1934 11.0791 33.1934 13.5789C33.1934 16.0787 35.2199 18.1052 37.7197 18.1052Z" fill="#4FBA6E"/>
<path d="M85.5576 80.4069L75.3025 70.1518L85.0838 65.2619L58.4736 55.4579L68.2791 82.0681L73.1691 72.2852L83.4242 82.5403C83.7184 82.8346 84.1047 82.9824 84.4909 82.9824C84.8771 82.9824 85.2634 82.8346 85.5576 82.5403C86.1475 81.9504 86.1475 80.9969 85.5576 80.4069Z" fill="#3D324C"/>
</g>
</g>
<defs>
<clipPath id="clip0">
<rect width="86" height="86" fill="white"/>
</clipPath>
</defs>
</svg>
