<svg width="86" height="86" viewBox="0 0 86 86" fill="none" xmlns="http://www.w3.org/2000/svg">
<g opacity="0.8">
<path d="M50.4141 2.96552H44.4831V7.41379H31.1382V2.96552H25.2072H2.96582V86H72.6555V2.96552H50.4141Z" fill="#545E73"/>
<path d="M44.4835 0H31.1387V7.41379H44.4835V0Z" fill="#404656"/>
<path d="M54.8623 7.41382V11.8621H20.7589V7.41382H7.41406V81.5518H68.2072V7.41382H54.8623Z" fill="#EFEBDE"/>
<path d="M44.4829 2.96552V7.41379H31.1381V2.96552H20.7588V11.8621H54.8622V2.96552H44.4829Z" fill="#8697CB"/>
<path d="M35.5867 23.7241H16.3109C15.4909 23.7241 14.8281 23.0613 14.8281 22.2414C14.8281 21.4214 15.4909 20.7586 16.3109 20.7586H35.5867C36.4067 20.7586 37.0695 21.4214 37.0695 22.2414C37.0695 23.0613 36.4067 23.7241 35.5867 23.7241Z" fill="#D5D0BB"/>
<path d="M35.5867 69.6896H16.3109C15.4909 69.6896 14.8281 69.0268 14.8281 68.2069C14.8281 67.3869 15.4909 66.7241 16.3109 66.7241H35.5867C36.4067 66.7241 37.0695 67.3869 37.0695 68.2069C37.0695 69.0268 36.4067 69.6896 35.5867 69.6896Z" fill="#D5D0BB"/>
<path d="M59.3109 32.6207H16.3109C15.4909 32.6207 14.8281 31.9579 14.8281 31.1379C14.8281 30.3179 15.4909 29.6552 16.3109 29.6552H59.3109C60.1308 29.6552 60.7936 30.3179 60.7936 31.1379C60.7936 31.9579 60.1308 32.6207 59.3109 32.6207Z" fill="#D5D0BB"/>
<path d="M59.3109 50.4138H16.3109C15.4909 50.4138 14.8281 49.751 14.8281 48.9311C14.8281 48.1111 15.4909 47.4483 16.3109 47.4483H59.3109C60.1308 47.4483 60.7936 48.1111 60.7936 48.9311C60.7936 49.751 60.1308 50.4138 59.3109 50.4138Z" fill="#D5D0BB"/>
<path d="M59.3109 60.7931H16.3109C15.4909 60.7931 14.8281 60.1303 14.8281 59.3103C14.8281 58.4904 15.4909 57.8276 16.3109 57.8276H59.3109C60.1308 57.8276 60.7936 58.4904 60.7936 59.3103C60.7936 60.1303 60.1308 60.7931 59.3109 60.7931Z" fill="#D5D0BB"/>
<path d="M37.0695 41.5172H16.3109C15.4909 41.5172 14.8281 40.8544 14.8281 40.0345C14.8281 39.2145 15.4909 38.5517 16.3109 38.5517H37.0695C37.8895 38.5517 38.5523 39.2145 38.5523 40.0345C38.5523 40.8544 37.8895 41.5172 37.0695 41.5172Z" fill="#D5D0BB"/>
<path d="M59.3103 41.5172H48.931C48.111 41.5172 47.4482 40.8544 47.4482 40.0345C47.4482 39.2145 48.111 38.5517 48.931 38.5517H59.3103C60.1303 38.5517 60.7931 39.2145 60.7931 40.0345C60.7931 40.8544 60.1303 41.5172 59.3103 41.5172Z" fill="#D5D0BB"/>
<path d="M43.0003 41.5173C42.5985 41.5173 42.2278 41.3675 41.9476 41.0873C41.6792 40.8055 41.5176 40.42 41.5176 40.0345C41.5176 39.6327 41.6659 39.262 41.9476 38.9817C42.511 38.4183 43.4896 38.4331 44.0531 38.9817C44.3333 39.262 44.4831 39.6327 44.4831 40.0345C44.4831 40.4348 44.32 40.8055 44.0531 41.0873C43.7714 41.3542 43.4007 41.5173 43.0003 41.5173Z" fill="#D5D0BB"/>
<path d="M65.2413 86C75.0682 86 83.0345 78.0338 83.0345 68.2069C83.0345 58.3801 75.0682 50.4138 65.2413 50.4138C55.4145 50.4138 47.4482 58.3801 47.4482 68.2069C47.4482 78.0338 55.4145 86 65.2413 86Z" fill="#26B999"/>
<path d="M74.9842 59.5758C74.3095 59.1072 73.3873 59.2733 72.9202 59.9465L64.6227 71.8678L58.7673 67.0607C58.1356 66.5403 57.2 66.6337 56.681 67.2668C56.1606 67.9 56.2525 68.8341 56.8871 69.3531L63.9836 75.1788C64.2505 75.3968 64.5827 75.5154 64.9237 75.5154C64.9904 75.5154 65.0586 75.511 65.1268 75.5021C65.5361 75.4442 65.9038 75.2204 66.141 74.8808L75.3549 61.6412C75.822 60.9681 75.6559 60.0443 74.9842 59.5758Z" fill="white"/>
</g>
</svg>
