<svg width="21" height="36" viewBox="0 0 21 36" fill="none" xmlns="http://www.w3.org/2000/svg">
<path d="M2.11267 0.359707L0.352255 2.16319C0.11717 2.4035 -1.45645e-06 2.68033 -1.44277e-06 2.99329C-1.42912e-06 3.30549 0.117171 3.5822 0.352255 3.82251L14.1913 17.9998L0.352626 32.1765C0.117542 32.4169 0.000369669 32.6936 0.000369683 33.0062C0.000369697 33.3189 0.117542 33.5956 0.352626 33.8359L2.11317 35.6392C2.34776 35.88 2.61787 36 2.92313 36C3.22815 36 3.49826 35.8796 3.73286 35.6392L20.1426 18.8295C20.3773 18.5892 20.4946 18.3124 20.4946 17.9998C20.4946 17.6872 20.3773 17.4109 20.1426 17.1707L3.73285 0.359707C3.49814 0.119396 3.22803 -1.41102e-07 2.92313 -1.27774e-07C2.61787 -1.14431e-07 2.34776 0.119396 2.11267 0.359707Z" fill="#FCDE32"/>
</svg>
