<svg width="23" height="24" viewBox="0 0 23 24" fill="none" xmlns="http://www.w3.org/2000/svg">
<path d="M22.6009 14.63L20.43 12.905C20.4973 12.3029 20.4973 11.695 20.43 11.093L22.6029 9.36699C23.0101 9.03376 23.1189 8.44942 22.8598 7.98798L20.6013 4.02101C20.3411 3.55667 19.7871 3.35389 19.2954 3.54303L16.7367 4.58904C16.2559 4.23457 15.7409 3.93068 15.1995 3.68206L14.8069 0.920049C14.7361 0.3898 14.2884 -0.00432355 13.7618 3.58113e-05H9.23492C8.71268 -0.00315168 8.26859 0.386566 8.19571 0.912033L7.80208 3.68201C7.26241 3.93302 6.74821 4.23715 6.26689 4.59002L3.7013 3.54199C3.21463 3.34704 2.66112 3.54738 2.40524 4.01098L0.144751 7.98498C-0.121371 8.44717 -0.0118133 9.03793 0.4016 9.36999L2.57251 11.095C2.50456 11.697 2.50456 12.305 2.57251 12.907L0.399617 14.632C-0.00826129 14.9647 -0.117588 15.5494 0.141798 16.011L2.39934 19.979C2.65914 20.4437 3.21348 20.6466 3.70522 20.457L6.26389 19.411C6.74512 19.7656 7.26048 20.0698 7.80204 20.319L8.19566 23.079C8.26495 23.6078 8.70987 24.0021 9.23487 24H13.7617C14.2849 24.0042 14.7304 23.6144 14.8039 23.088L15.1975 20.318C15.7371 20.0669 16.2513 19.7628 16.7327 19.41L19.3012 20.459C19.7879 20.6535 20.3411 20.4533 20.5972 19.99L22.8646 16C23.1185 15.5392 23.0069 14.9596 22.6009 14.63ZM11.4983 17C8.78082 17 6.5778 14.7614 6.5778 12C6.5778 9.23851 8.78077 6.99995 11.4983 6.99995C14.2159 6.99995 16.4188 9.23851 16.4188 12C16.4155 14.76 14.2145 16.9967 11.4983 17Z" fill="white"/>
</svg>
