<svg width="36" height="21" viewBox="0 0 36 21" fill="none" xmlns="http://www.w3.org/2000/svg">
<path d="M35.6403 2.11267L33.8368 0.352256C33.5965 0.117172 33.3197 0 33.0067 0C32.6945 0 32.4178 0.117172 32.1775 0.352256L18.0002 14.1913L3.82352 0.352626C3.58308 0.117542 3.30638 0.000369814 2.9938 0.000369814C2.68109 0.000369814 2.40439 0.117542 2.16408 0.352626L0.360848 2.11317C0.12003 2.34776 0 2.61787 0 2.92313C0 3.22815 0.120409 3.49826 0.360848 3.73286L17.1705 20.1426C17.4108 20.3773 17.6876 20.4946 18.0002 20.4946C18.3128 20.4946 18.5891 20.3773 18.8293 20.1426L35.6403 3.73286C35.8806 3.49814 36 3.22803 36 2.92313C36 2.61787 35.8806 2.34776 35.6403 2.11267Z" fill="#202F36"/>
</svg>
