<svg width="51" height="51" viewBox="0 0 51 51" fill="none" xmlns="http://www.w3.org/2000/svg">
<path d="M46.3866 0H4.61336C2.0655 0 0 2.0655 0 4.61336V46.3865C0 48.9345 2.0655 51 4.61336 51H46.3865C48.9345 51 51 48.9345 51 46.3865V4.61336C51 2.0655 48.9345 0 46.3866 0ZM15.7816 44.0368C15.7816 44.7783 15.1805 45.3793 14.439 45.3793H8.72407C7.98257 45.3793 7.38152 44.7783 7.38152 44.0368V20.08C7.38152 19.3385 7.98257 18.7374 8.72407 18.7374H14.439C15.1805 18.7374 15.7816 19.3385 15.7816 20.08V44.0368ZM11.5815 16.4791C8.58309 16.4791 6.15231 14.0484 6.15231 11.0499C6.15231 8.05146 8.58309 5.62068 11.5815 5.62068C14.58 5.62068 17.0108 8.05146 17.0108 11.0499C17.0108 14.0484 14.5801 16.4791 11.5815 16.4791ZM45.6477 44.1449C45.6477 44.8266 45.0949 45.3793 44.4133 45.3793H38.2807C37.599 45.3793 37.0463 44.8266 37.0463 44.1449V32.9078C37.0463 31.2315 37.538 25.5621 32.6655 25.5621C28.886 25.5621 28.1194 29.4426 27.9655 31.1841V44.1449C27.9655 44.8266 27.4129 45.3793 26.7311 45.3793H20.7999C20.1182 45.3793 19.5654 44.8266 19.5654 44.1449V19.9718C19.5654 19.2901 20.1182 18.7374 20.7999 18.7374H26.7311C27.4128 18.7374 27.9655 19.2901 27.9655 19.9718V22.0619C29.3669 19.9588 31.4496 18.3354 35.8841 18.3354C45.7039 18.3354 45.6477 27.5096 45.6477 32.5503V44.1449Z" fill="white"/>
</svg>
