<svg width="55" height="51" viewBox="0 0 55 51" fill="none" xmlns="http://www.w3.org/2000/svg">
<path d="M54.1384 47.6839L38.315 32.8688C41.3162 29.3997 43.1228 24.9894 43.1228 20.1876C43.1228 9.05621 33.4503 0 21.5613 0C9.67243 0 0 9.05621 0 20.1876C0 31.319 9.67253 40.3752 21.5615 40.3752C26.69 40.3752 31.4005 38.6836 35.1057 35.8737L50.9291 50.6888C51.3724 51.1037 52.0907 51.1037 52.534 50.6888L54.1385 49.1865C54.5816 48.7716 54.5816 48.0988 54.1384 47.6839ZM21.5615 36.1251C12.1749 36.1251 4.53928 28.976 4.53928 20.1876C4.53928 11.3991 12.1749 4.25004 21.5615 4.25004C30.948 4.25004 38.5836 11.3991 38.5836 20.1876C38.5836 28.976 30.948 36.1251 21.5615 36.1251Z" fill="#4F4F4F"/>
</svg>
