<svg width="86" height="86" viewBox="0 0 86 86" fill="none" xmlns="http://www.w3.org/2000/svg">
<g opacity="0.8">
<path d="M68.5572 79.8842H14.3696C7.27371 79.8842 1.52051 74.1311 1.52051 67.0352V12.8491C1.52204 5.7532 7.27371 0 14.3696 0H68.5557C75.6516 0 81.4048 5.7532 81.4048 12.8491V67.0352C81.4063 74.1311 75.6531 79.8842 68.5572 79.8842Z" fill="#3ABCA7"/>
<path d="M69.1162 21.5073H41.464C40.6144 21.5073 39.9277 20.8206 39.9277 19.9711C39.9277 19.1215 40.6144 18.4348 41.464 18.4348H69.1162C69.9657 18.4348 70.6524 19.1215 70.6524 19.9711C70.6524 20.8206 69.9642 21.5073 69.1162 21.5073Z" fill="white"/>
<path d="M69.1162 43.0146H41.464C40.6144 43.0146 39.9277 42.3279 39.9277 41.4784C39.9277 40.6288 40.6144 39.9421 41.464 39.9421H69.1162C69.9657 39.9421 70.6524 40.6288 70.6524 41.4784C70.6524 42.3279 69.9642 43.0146 69.1162 43.0146Z" fill="white"/>
<path d="M69.1162 64.5219H41.464C40.6144 64.5219 39.9277 63.8352 39.9277 62.9856C39.9277 62.1361 40.6144 61.4494 41.464 61.4494H69.1162C69.9657 61.4494 70.6524 62.1361 70.6524 62.9856C70.6524 63.8352 69.9642 64.5219 69.1162 64.5219Z" fill="white"/>
<path d="M20.0643 26.116C19.7432 26.116 19.419 26.0161 19.144 25.8087L12.1219 20.541C11.4429 20.0325 11.3046 19.0693 11.8147 18.3918C12.3247 17.7112 13.2879 17.5776 13.9639 18.0845L19.8354 22.4874L29.4338 11.2913C29.9837 10.6461 30.9577 10.5724 31.5983 11.1254C32.2435 11.6769 32.3188 12.6463 31.7642 13.29L21.2303 25.5798C20.9307 25.9332 20.499 26.116 20.0643 26.116Z" fill="white"/>
<path d="M20.0643 47.6233C19.7432 47.6233 19.419 47.5234 19.144 47.3161L12.1219 42.0483C11.4429 41.5398 11.3046 40.5766 11.8147 39.8991C12.3247 39.2186 13.2879 39.0849 13.9639 39.5919L19.8354 43.9947L29.4338 32.7986C29.9837 32.1534 30.9577 32.0797 31.5983 32.6327C32.2435 33.1842 32.3188 34.1536 31.7642 34.7973L21.2303 47.0872C20.9307 47.4405 20.499 47.6233 20.0643 47.6233Z" fill="white"/>
<path d="M20.0643 70.6653C19.7432 70.6653 19.419 70.5654 19.144 70.358L12.1219 65.0903C11.4429 64.5818 11.3046 63.6186 11.8147 62.9411C12.3247 62.2605 13.2879 62.1254 13.9639 62.6338L19.8354 67.0367L29.4338 55.8421C29.9837 55.1969 30.9577 55.1232 31.5983 55.6762C32.2435 56.2277 32.3188 57.1971 31.7642 57.8408L21.2303 70.1291C20.9307 70.4825 20.499 70.6653 20.0643 70.6653Z" fill="white"/>
<path d="M62.629 77.7212C70.9404 77.7212 77.678 70.9836 77.678 62.6723C77.678 54.3609 70.9404 47.6233 62.629 47.6233C54.3177 47.6233 47.5801 54.3609 47.5801 62.6723C47.5801 70.9836 54.3177 77.7212 62.629 77.7212Z" fill="#D0E8F9"/>
<path d="M68.0874 48.6587L48.6172 68.1289C49.7018 70.9095 51.5821 73.2861 53.9863 74.979L74.9375 54.0294C73.2446 51.6236 70.868 49.7433 68.0874 48.6587Z" fill="#EAF6FD"/>
<path d="M84.052 83.4037L74.8806 73.8115C77.5629 70.8634 79.2128 66.9629 79.2128 62.6722C79.2143 53.527 71.7744 46.087 62.6291 46.087C53.4839 46.087 46.0439 53.527 46.0439 62.6722C46.0439 71.8174 53.4839 79.2574 62.6291 79.2574C66.3806 79.2574 69.8326 77.9916 72.6131 75.8839L81.8321 85.5253C82.1332 85.8417 82.5372 86 82.9428 86C83.3253 86 83.7063 85.8586 84.0043 85.5744C84.6173 84.9891 84.6388 84.0152 84.052 83.4037ZM49.1164 62.6722C49.1164 55.2215 55.1784 49.1595 62.6291 49.1595C70.0799 49.1595 76.1419 55.2215 76.1419 62.6722C76.1419 70.123 70.0799 76.185 62.6291 76.185C55.1784 76.185 49.1164 70.123 49.1164 62.6722Z" fill="#B1D3EF"/>
</g>
</svg>
