<svg width="49" height="40" viewBox="0 0 49 40" fill="none" xmlns="http://www.w3.org/2000/svg">
<path d="M15.6148 39.6468C33.6582 39.6468 43.5254 24.6984 43.5254 11.7363C43.5254 11.3117 43.5166 10.8889 43.4976 10.4685C45.4128 9.08367 47.0774 7.35562 48.3908 5.38868C46.6333 6.17025 44.7415 6.69568 42.7576 6.9334C44.7827 5.7185 46.3376 3.79747 47.071 1.50743C45.1757 2.6311 43.0766 3.44747 40.8421 3.8884C39.052 1.98169 36.5032 0.789307 33.6813 0.789307C28.2644 0.789307 23.8712 5.18225 23.8712 10.5974C23.8712 11.3676 23.9574 12.1161 24.1256 12.8342C15.9727 12.424 8.74296 8.52081 3.90529 2.5852C3.06319 4.0346 2.57723 5.71879 2.57723 7.51585C2.57723 10.9187 4.30908 13.9237 6.94239 15.681C5.33305 15.6316 3.82137 15.1898 2.49974 14.4544C2.49828 14.4956 2.49828 14.5357 2.49828 14.5795C2.49828 19.3304 5.87954 23.297 10.3687 24.1958C9.54412 24.4201 8.67659 24.5408 7.78186 24.5408C7.15087 24.5408 6.53567 24.4788 5.93802 24.3639C7.18684 28.2616 10.8084 31.0978 15.102 31.1773C11.7444 33.8089 7.5149 35.3764 2.91816 35.3764C2.12753 35.3764 1.34595 35.3311 0.578125 35.2404C4.91961 38.0232 10.0748 39.6471 15.6151 39.6471" fill="white"/>
</svg>
